<svg xmlns="http://www.w3.org/2000/svg" xmlns:xlink="http://www.w3.org/1999/xlink" width="500" zoomAndPan="magnify" viewBox="0 0 375 374.999991" height="500" preserveAspectRatio="xMidYMid meet" version="1.0"><defs><clipPath id="629faba10b"><path d="M 187.5 0 C 83.945312 0 0 83.945312 0 187.5 C 0 291.054688 83.945312 375 187.5 375 C 291.054688 375 375 291.054688 375 187.5 C 375 83.945312 291.054688 0 187.5 0 Z M 187.5 0 " clip-rule="nonzero"/></clipPath><clipPath id="b4641b2230"><path d="M 92.050781 149 L 160 149 L 160 229.347656 L 92.050781 229.347656 Z M 92.050781 149 " clip-rule="nonzero"/></clipPath><clipPath id="694b615023"><path d="M 164 111.597656 L 209 111.597656 L 209 229 L 164 229 Z M 164 111.597656 " clip-rule="nonzero"/></clipPath><clipPath id="94b201209b"><path d="M 210 111.597656 L 255 111.597656 L 255 229 L 210 229 Z M 210 111.597656 " clip-rule="nonzero"/></clipPath><clipPath id="ddb918f0eb"><path d="M 260 111.597656 L 272.050781 111.597656 L 272.050781 125 L 260 125 Z M 260 111.597656 " clip-rule="nonzero"/></clipPath><clipPath id="1edc2917c7"><path d="M 260 149 L 272.050781 149 L 272.050781 228 L 260 228 Z M 260 149 " clip-rule="nonzero"/></clipPath></defs><g clip-path="url(#629faba10b)"><rect x="-37.5" width="450" fill="#0d0f25" y="-37.499999" height="449.999989" fill-opacity="1"/></g><g clip-path="url(#b4641b2230)"><path fill="#ffffff" d="M 146.847656 152.949219 C 141.9375 150.941406 134.617188 149.894531 124.878906 149.894531 C 115.144531 149.894531 107.902344 151.421875 103.152344 154.476562 C 101.996094 155.210938 100.925781 156.054688 99.9375 157.003906 C 98.949219 157.953125 98.066406 158.988281 97.285156 160.113281 C 96.503906 161.238281 95.84375 162.429688 95.300781 163.6875 C 94.757812 164.945312 94.34375 166.242188 94.0625 167.582031 C 92.691406 173.210938 92.050781 181.167969 92.050781 191.378906 C 91.933594 197.507812 92.414062 203.59375 93.5 209.628906 C 94.210938 213.886719 95.929688 217.691406 98.648438 221.042969 C 100.042969 222.585938 101.628906 223.890625 103.410156 224.957031 C 105.195312 226.027344 107.09375 226.8125 109.109375 227.316406 C 113.613281 228.597656 119.488281 229.242188 126.8125 229.242188 C 133.007812 229.390625 139.152344 228.882812 145.238281 227.714844 C 147.390625 227.265625 149.394531 226.453125 151.25 225.277344 C 153.109375 224.101562 154.699219 222.632812 156.019531 220.878906 C 158.675781 217.339844 159.960938 211.957031 159.960938 204.640625 L 147.8125 204.640625 L 147.8125 207.207031 C 147.8125 212.671875 146.121094 216.128906 142.824219 217.738281 C 139.523438 219.265625 134.617188 220.070312 128.097656 220.070312 L 125.039062 220.070312 C 118.441406 220.070312 113.691406 218.945312 110.71875 216.773438 C 109.25 215.726562 108.039062 214.433594 107.09375 212.902344 C 106.144531 211.367188 105.527344 209.710938 105.246094 207.929688 C 104.492188 202.570312 104.171875 197.183594 104.28125 191.769531 L 159.960938 191.769531 L 159.960938 185.742188 C 159.796875 175.691406 158.832031 168.214844 157.0625 163.3125 C 156.613281 162.144531 156.046875 161.035156 155.367188 159.984375 C 154.691406 158.929688 153.910156 157.960938 153.03125 157.070312 C 152.152344 156.179688 151.195312 155.386719 150.152344 154.691406 C 149.109375 153.996094 148.007812 153.417969 146.847656 152.949219 Z M 104.121094 182.855469 C 104.121094 176.425781 104.683594 171.515625 105.890625 168.144531 C 106.40625 166.539062 107.222656 165.105469 108.34375 163.847656 C 109.464844 162.585938 110.792969 161.609375 112.328125 160.90625 C 115.382812 159.460938 119.96875 158.738281 125.84375 158.738281 C 132.605469 158.738281 137.511719 159.378906 140.570312 160.664062 C 141.300781 160.949219 141.984375 161.316406 142.625 161.765625 C 143.265625 162.214844 143.847656 162.734375 144.363281 163.320312 C 144.882812 163.90625 145.324219 164.546875 145.6875 165.238281 C 146.054688 165.933594 146.332031 166.65625 146.523438 167.417969 C 147.410156 170.632812 147.890625 175.777344 147.890625 182.691406 L 104.121094 182.691406 Z M 104.121094 182.855469 " fill-opacity="1" fill-rule="nonzero"/></g><g clip-path="url(#694b615023)"><path fill="#ffffff" d="M 201.402344 111.699219 C 192.710938 111.699219 186.355469 113.460938 182.414062 116.980469 C 178.46875 120.503906 176.457031 126.792969 176.457031 135.851562 L 176.457031 147.675781 L 164.871094 147.675781 L 164.871094 157.484375 L 176.457031 157.484375 L 176.457031 228.519531 L 188.207031 228.519531 L 188.207031 157.484375 L 208.804688 157.484375 L 208.804688 147.671875 L 188.207031 147.671875 L 188.207031 134.84375 C 188.207031 126.207031 192.953125 121.847656 202.445312 121.847656 C 203.171875 121.847656 204.214844 121.847656 205.746094 121.929688 C 207.195312 122.011719 208.238281 122.011719 208.804688 122.011719 L 208.804688 112.117188 C 207.917969 112.117188 206.710938 112.035156 205.183594 111.949219 C 203.925781 111.796875 202.667969 111.714844 201.402344 111.699219 Z M 201.402344 111.699219 " fill-opacity="1" fill-rule="nonzero"/></g><g clip-path="url(#94b201209b)"><path fill="#ffffff" d="M 247.265625 111.699219 C 238.574219 111.699219 232.21875 113.460938 228.277344 116.980469 C 224.332031 120.503906 222.324219 126.792969 222.324219 135.851562 L 222.324219 147.675781 L 210.734375 147.675781 L 210.734375 157.484375 L 222.324219 157.484375 L 222.324219 228.519531 L 234.070312 228.519531 L 234.070312 157.484375 L 254.671875 157.484375 L 254.671875 147.671875 L 234.070312 147.671875 L 234.070312 134.84375 C 234.070312 126.207031 238.816406 121.847656 248.3125 121.847656 C 249.035156 121.847656 250.082031 121.847656 251.609375 121.929688 C 253.058594 122.011719 254.105469 122.011719 254.667969 122.011719 L 254.667969 112.117188 C 253.78125 112.117188 252.574219 112.035156 251.046875 111.949219 C 249.792969 111.796875 248.53125 111.710938 247.265625 111.699219 Z M 247.265625 111.699219 " fill-opacity="1" fill-rule="nonzero"/></g><g clip-path="url(#ddb918f0eb)"><path fill="#ffffff" d="M 260.300781 111.859375 L 272.050781 111.859375 L 272.050781 124.722656 L 260.300781 124.722656 Z M 260.300781 111.859375 " fill-opacity="1" fill-rule="nonzero"/></g><g clip-path="url(#1edc2917c7)"><path fill="#ffffff" d="M 260.300781 149.972656 L 272.050781 149.972656 L 272.050781 227.398438 L 260.300781 227.398438 Z M 260.300781 149.972656 " fill-opacity="1" fill-rule="nonzero"/></g></svg>